<?xml version="1.0" encoding="UTF-8" standalone="no"?>
<!-- Created with Inkscape (http://www.inkscape.org/) -->

<svg
   xmlns:dc="http://purl.org/dc/elements/1.1/"
   xmlns:cc="http://creativecommons.org/ns#"
   xmlns:rdf="http://www.w3.org/1999/02/22-rdf-syntax-ns#"
   xmlns:svg="http://www.w3.org/2000/svg"
   xmlns="http://www.w3.org/2000/svg"
   xmlns:xlink="http://www.w3.org/1999/xlink"
   xmlns:sodipodi="http://sodipodi.sourceforge.net/DTD/sodipodi-0.dtd"
   xmlns:inkscape="http://www.inkscape.org/namespaces/inkscape"
   width="1072.75"
   height="339.39307"
   id="svg4383"
   version="1.1"
   inkscape:version="0.48.3.1 r9886"
   sodipodi:docname="New document 15">
  <defs
     id="defs4385">
    <filter
       color-interpolation-filters="sRGB"
       height="1"
       y="0"
       width="1"
       x="0"
       inkscape:menu-tooltip="Light areas turn to black"
       inkscape:menu="Color"
       inkscape:label="Recolour cyan"
       id="filter3501">
      <feColorMatrix
         result="result1"
         values="0 0 0 0 0.411 0 0 0 0 0.874 0 0 0 0 0.98 0 0 0 1 0 "
         in="SourceGraphic"
         id="feColorMatrix3503" />
    </filter>
    <filter
       color-interpolation-filters="sRGB"
       height="1"
       y="0"
       width="1"
       x="0"
       inkscape:menu-tooltip="Light areas turn to black"
       inkscape:menu="Color"
       inkscape:label="Recolour red"
       id="filter4842">
      <feColorMatrix
         result="result1"
         values="0 0 0 0 0.75 0 0 0 0 0.25 0 0 0 0 0.25 0 0 0 1 0 "
         in="SourceGraphic"
         id="feColorMatrix4844" />
    </filter>
  </defs>
  <sodipodi:namedview
     id="base"
     pagecolor="#ffffff"
     bordercolor="#666666"
     borderopacity="1.0"
     inkscape:pageopacity="0.0"
     inkscape:pageshadow="2"
     inkscape:zoom="0.98994949"
     inkscape:cx="651.0654"
     inkscape:cy="258.65688"
     inkscape:document-units="px"
     inkscape:current-layer="layer1"
     showgrid="false"
     fit-margin-top="0"
     fit-margin-left="0"
     fit-margin-right="0"
     fit-margin-bottom="0"
     inkscape:window-width="1920"
     inkscape:window-height="1080"
     inkscape:window-x="0"
     inkscape:window-y="0"
     inkscape:window-maximized="0" />
  <metadata
     id="metadata4388">
    <rdf:RDF>
      <cc:Work
         rdf:about="">
        <dc:format>image/svg+xml</dc:format>
        <dc:type
           rdf:resource="http://purl.org/dc/dcmitype/StillImage" />
        <dc:title></dc:title>
      </cc:Work>
    </rdf:RDF>
  </metadata>
  <g
     inkscape:label="Layer 1"
     inkscape:groupmode="layer"
     id="layer1"
     transform="translate(0.75,-713.33412)">
    <path
       style="fill:#69dffa;fill-opacity:1"
       d="m 376.83502,1026.7823 -14.58502,25.9449 0,-30.1949 0,-30.19494 17.04215,0 17.04216,0 -2.45714,4.25 z"
       id="use4409"
       inkscape:connector-curvature="0" />
    <path
       style="fill:#69dffa;fill-opacity:1"
       d="m -0.75,984.33766 0,-49.99999 429,0 c -8.91152,17.73436 -17.53066,32.31876 -27.5,49.99259 l -401.5,0.01 z"
       id="use4411"
       inkscape:connector-curvature="0" />
    <path
       sodipodi:nodetypes="ccccccccccc"
       style="fill:#262626;fill-opacity:1"
       d="m 235.4998,917.39137 -6.5101,8.94275 -222.1656,0 -7.3241,-8.94275 0,-204.05725 119.0173,0 0,104.01483 7.9344,0 0,-104.01482 109.0483,-10e-6 z"
       id="use3891"
       inkscape:connector-curvature="0" />
    <path
       inkscape:connector-curvature="0"
       id="use4175"
       style="font-size:56px;font-style:normal;font-variant:normal;font-weight:bold;font-stretch:normal;text-align:start;line-height:100%;letter-spacing:0.05650402;writing-mode:lr-tb;text-anchor:start;fill:#69dffa;fill-opacity:1;stroke:none;display:inline;enable-background:new;font-family:Roboto;-inkscape-font-specification:Roboto Medium"
       d="m 209.0906,741.40732 c 3.4106,-2.29598 8.7134,-6.34011 11.7841,-8.98695 l 5.3301,-4.97006 c 1.4326,-1.98072 3.655,-2.63966 5.0876,0.063 l 1.1417,3.33325 3.0659,8.02717 0,-25.53916 -40.1591,0 0.015,2.16657 -1.2285,5.80372 -1.2286,5.80372 -0.064,6.54935 -0.064,6.54937 1.2512,1.56454 c 1.8993,0.92206 4.5258,1.68495 7.5041,3.55891 l 1.3642,0.251 6.2011,-4.17452 0,4e-5 0,0 z m 26.2544,17.05684 c 0,-0.80949 1.2306,-1.43604 -3.2425,-9.10209 -2.2772,-4.90544 -3.5939,-8.07621 -3.6023,-9.29762 -0.01,-1.22141 -0.2293,-2.98529 -0.3051,-4.82368 -0.1847,-1.26026 0.031,-3.2734 -1.8056,-2.33677 l -10.9138,8.57889 c -3.1732,2.39426 -7.8395,4.1952 -9.4248,7.64683 l 1.9944,2.80088 1.3624,2.13892 5.4444,2.68937 c 5.4461,2.69017 8.1669,3.34182 15.2038,3.6414 l 5.2891,0.3827 z M 5.0412,838.0323 l 3.3906,-1.41328 1.0816,-2.016 c 1.4737,-2.74715 1.6161,-2.36385 -3.8383,-7.95584 l -4.9198,-5.0123 -1.2553,0.0491 c 0.076,5.4788 0.06,10.95131 0,16.43015 l 0.7516,0.6657 c 0.83,0.73518 1.5046,0.34747 4.7896,-0.74759 l 0,4e-5 z m 230.4588,79.60727 0,-125.58896 -1.9821,0.0747 c -11.0701,0.81939 -17.6245,-9.46711 -21.3839,-17.50486 l -4.3308,-4.64133 -4.1728,-2.43483 -2.0039,-0.0549 0.2396,1.58416 6.4338,7.81648 3.9059,4.75889 -0.1427,7.38477 0.5525,6.97499 -0.3029,6.18076 -0.5873,6.14926 -1.286,3.7306 -0.433,-4.55953 0.2675,-10.9049 -0.6172,-10.306 -0.5442,-3.09678 c -0.9076,-1.32182 -4.7512,-5.79799 -7.6917,-9.48476 l -6.1364,-7.8695 -3.8916,-1.60759 0.4374,3.49888 c -0.2222,1.21669 1.3569,3.80351 -0.5602,4.22246 -0.4293,1.87133 -1.9282,8.48222 -4.025,16.30834 l -3.5911,13.53588 -2.2269,5.10648 c -0.4502,1.03229 0.9319,-7.09439 1.2957,-9.33525 0.5297,-0.98742 1.9173,-7.1364 3.0836,-13.66443 l 2.4366,-12.81478 c -0.2185,-1.70244 -0.3895,-1.73423 0.7617,-3.34211 l -0.755,-7.15621 -2.734,-3.49317 -2.9236,-3.80839 -5.1606,-1.89943 -7.4673,-2.84508 c -12.1976,-0.22584 -20.3822,0.0679 -29.4722,-0.28563 -2.6436,-0.25493 -4.459,0.96431 -7.4207,0.84854 0.6952,-0.80796 2.1621,-1.26765 2.0223,-1.28909 l 3.472,-1.49492 5.6207,-0.61232 10.3564,-0.36466 13.3463,-0.79962 c 2.6239,-0.28226 3.1498,1.26677 4.5766,2.02937 l 2.4298,1.07924 2.6588,0.78711 3.6248,-0.23054 -0.2554,-1.81879 c -2.1684,-1.82776 -2.359,-2.20655 -2.6685,-3.28986 l 1.3858,0.84698 1.1177,0.62409 2.3237,-0.7213 c 0.6181,-0.94722 0.4597,-1.60598 0.039,-2.27574 -0.2588,-0.41195 -1.616,-0.22893 -3.0106,-1.254 1.609,-0.8144 3.4998,-0.21439 4.5248,1.24733 l 2.6257,-0.49122 1.1787,-12.48188 1.1787,-12.48188 0.4275,-2.7905 -63.5459,-2e-5 0,104.14345 -7.8012,-3e-5 -0.1388,-104.14341 -119.06,0 0,84.70717 c 0,-1.61645 3.2515,-4.94918 4.2627,-5.39049 l 2.7497,-1.92314 5.676,-2.5471 c 0,0 3.0326,-1.44105 7.1295,-1.72755 3.056,-0.21751 6.3479,1.17651 9.3558,2.34334 0,0 3.7436,1.81812 5.8291,4.27679 0,0 3.1332,3.98859 4.6914,5.66375 1.5583,1.67517 1.9206,4.13301 1.9206,4.13301 0.8149,2.26505 1.6198,5.59574 2.0246,8.61635 0.4047,3.02061 1.1177,6.49907 1.5843,7.72991 l 0.09,2.23787 0.9533,1.27723 4.3657,-1.62272 c 2.7806,-0.94565 7.0067,2.31629 7.0067,2.31629 3.8538,1.27396 10.588,1.89238 10.8921,4.26312 l 3.8852,1.94682 5.7581,5.67331 c 3.1669,3.12031 5.0024,5.43317 6.4731,6.21839 l 4.6332,2.3103 4.6363,-1.94084 4.5099,-2.94954 3.8571,-1.95605 c 0.1407,-2.33134 -0.043,-2.96098 0.3182,-3.59518 l 9.7581,-5.84069 8.1782,-4.51678 3.1304,-1.82824 c 1.1308,0 2.5987,2.08954 3.7324,1.48428 l 0,-2.61352 2.8078,-0.40011 1.6887,3.44552 16.505,-9.89399 c 2.0055,-0.46435 3.1858,0.12958 2.8369,2.68497 -6.0828,3.87698 -12.3693,7.49229 -18.4376,11.40867 -0.1264,0.21666 3.5286,0.39555 3.5286,0.39555 0,0 2.849,2.21648 3.638,3.23015 1.5782,2.0273 2.256,4.78789 2.5875,5.74939 l -0.1555,1.3699 -4.4203,5.11442 -3.978,4.29358 -9.1699,5.98523 c -5.0782,3.1178 -9.3481,5.98266 -10.1838,6.67455 l -2.0882,-0.4442 -0.1224,4.77227 0.7624,2.43969 1.9982,3.26943 c 2.5438,4.16218 3.6803,3.75171 0.9633,7.63478 -4.1955,4.75714 -5.055,5.84373 -7.6809,3.74972 -1.2267,1.56968 -3.151,1.74767 -5.2112,1.6544 l -7.6091,-1.77546 5.6935,5.31688 2.4817,1.82799 c 1.0174,1.14409 4.2145,3.60099 7.1048,5.45979 l 6.2978,3.85245 c -1.1942,2.00043 -1.3476,2.13362 -2.6756,3.91992 l -2.3597,2.54475 6.0288,5.0836 -3.0449,3.66135 -6.1713,-3.99647 c -2.8985,4.02067 -3.6145,6.10026 -4.8246,7.47982 l -12.9632,-10.51284 3.0902,7.33203 -0.3856,1.15385 2.2716,4.1314 c 1.2494,2.27227 3.7221,4.61292 3.7861,5.88616 l 1.5145,1.75521 127.9946,0 c 2.0523,-2.92012 4.4437,-5.77671 6.5,-8.695 z m -204.1317,4.69104 c 0.087,-0.98404 0.8132,-0.77436 1.7156,-2.33949 0.1385,-2.11017 0.2333,-4.23972 -2.7727,-7.74408 l -2.9961,-6.00554 -2.8069,-2.57695 -3.075,-2.93359 -8.0959,0.82724 c -4.0594,0.25884 -7.5869,-0.21469 -9.2385,0.17733 l -4.5987,2.22582 -10e-5,13.53722 7.241,8.836 25.7306,0 c 0.6001,-0.93614 0.033,-2.78203 -1.1033,-4.00396 z"
       sodipodi:nodetypes="ccccccccccccccccccccsccccccccsccsccsccccscccccccccccccccccccccccccccccccccccccccccccccccccccccccsccccccccccccccccccscscccccscscccccccccccccccccscccccccccscccccccccccccccccsscccccccccccccccc" />
    <path
       style="fill:#262626;fill-opacity:1;stroke:none;filter:url(#filter3501)"
       d="m 243,926.36254 0,-131 47,0 21,46 0,-46 43.00003,0 0,131 -43.00003,0 -21,-46 0,46 z"
       id="use3933"
       inkscape:connector-curvature="0"
       sodipodi:nodetypes="ccccccccccc" />
    <path
       style="fill:#262626;fill-opacity:1;stroke:none;filter:url(#filter3501)"
       d="m 361.00002,926.36254 0,-131 57,0 -0.5,51 29,-51 59.5,0 -73.5,131 z"
       id="use3935"
       inkscape:connector-curvature="0"
       sodipodi:nodetypes="cccccccc" />
    <path
       style="fill:#262626;fill-opacity:1;stroke:none;filter:url(#filter4842)"
       d="m 627,795.36218 0,44 33,0 0,87 45,0 0,-87 33,0 0,-44 z"
       id="use3943"
       inkscape:connector-curvature="0"
       sodipodi:nodetypes="ccccccccc" />
    <path
       sodipodi:nodetypes="ccccccccccccccccccc"
       inkscape:connector-curvature="0"
       id="use3951"
       d="m 513.49998,795.35618 -4.49998,5.5 0,71 4.49998,5.5 56.5,0 0,5 -60.99998,0 0,38.5 4.49998,5.5 102.3438,0.006 4.1562,-5.09375 0,-71.41225 -4.5,-5.5 -50.5,0 0,-5 55,0 0,-38.50017 -4.5,-5.49983 z"
       style="fill:#262626;fill-opacity:1;stroke:none;filter:url(#filter4842)" />
    <path
       style="fill:#262626;fill-opacity:1;stroke:none;filter:url(#filter4842)"
       d="m -385.25,52.375003 -36.75,-131 57,-3e-6 15.5,51 13,-50.999997 59.5,-3e-6 -36.75,131 z"
       id="use3953"
       inkscape:connector-curvature="0"
       sodipodi:nodetypes="cccccccc"
       transform="matrix(-1,0,0,-1,441,847.73718)" />
    <use
       x="0"
       y="0"
       xlink:href="#use3943"
       id="use5027"
       transform="translate(216,0)"
       width="744.09448"
       height="1052.3622"
       style="filter:url(#filter4842)" />
    <use
       x="0"
       y="0"
       xlink:href="#use3951"
       id="use5029"
       transform="translate(452,0)"
       width="744.09448"
       height="1052.3622"
       style="filter:url(#filter4842)" />
  </g>
</svg>
