<?xml version="1.0" encoding="UTF-8" standalone="yes" ?>
<svg xmlns="http://www.w3.org/2000/svg" xmlns:xlink="http://www.w3.org/1999/xlink" width="1072.75" height="339.39307" version="1.1">
 <defs>
  <clipPath id="clip_U"><use xlink:href="#letter_U" /></clipPath><!-- overlay -->
  <clipPath id="clip_v_bar"><!-- v, bar, tail -->
   <rect x="0" y="82" width="512" height="131" />
   <rect x="0" y="221" width="512" height="50" />
   <rect x="0" y="279" width="512" height="64" />
  </clipPath>
 </defs>
 <!-- U --><path fill="#69dffa" d="m 7.3241,213 -7.3241,-8.94275 0,-204.05725 119.0173,0 0,104.01483 7.9344,0 0,-104.01483 109.0483,0 0,204.05725 -7.3241,8.94275 -222.1656,0 z" id="letter_U" />
 <!-- n --><path fill="#69dffa" d="m 243,213 0,-131 47,0 21,46 0,-46 43,0 0,131 -43,0 -21,-46 0,46 z" />
 <!-- v, bar, tail -->
 <path clip-path="url(#clip_v_bar)" fill="#69dffa" d="m 361,340 0,-68 -361,0 0,-52 361,0 0,-138 57,0 -0.5,51 29,-51 59.5,0 z" />
 <!-- s --><path fill="#bf4040" d="m 513.5,82 -4.5,5.5 0,71 4.5,5.5 56.5,0 0,5 -61,0 0,38.5 4.5,5.5 102.34375,0 4.15625,-5.5 0,-71 -4.5,-5.5 -50.5,0 0,-5 55,0 0,-38.5 -4.5,-5.5 z" id="letter_s" />
 <!-- t --><path fill="#bf4040" d="m 627,82 0,44 33,0 0,87 45,0 0,-87 33,0 0,-44 z" id="letter_t" />
 <!-- a --><path fill="#bf4040" d="m 826.25,82 36.75,131 -57,0 -15.5,-51 -13,51 -59.5,0 36.75,-131 z" />
 <!-- t --><use xlink:href="#letter_t" transform="translate(216,0)" />
 <!-- s --><use xlink:href="#letter_s" transform="translate(452,0)" />
 <!-- overlay -->
 <path fill="#262626" clip-path="url(#clip_U)" d="m 126.95625,0 0,104 -7.75,0 0,0.15625 7.78125,0 0,-104.15625 -0.0312,0 z
m 63.59375,0 -0.4375,2.78125 -1.1875,12.5 -1.15625,12.46875 -2.625,0.5
c -1.025,-1.46172 -2.92225,-2.0644 -4.53125,-1.25 1.3946,1.02507 2.7412,0.83805 3,1.25 0.4207,0.66976 0.58685,1.33403 -0.0312,2.28125
l -2.3125,0.71875 -1.125,-0.625 -1.375,-0.84375
c 0.3095,1.08331 0.48785,1.45349 2.65625,3.28125
l 0.25,1.8125 -3.625,0.25 -2.65625,-0.78125 -2.4375,-1.09375
c -1.4268,-0.7626 -1.9386,-2.31351 -4.5625,-2.03125
l -13.34375,0.8125 -10.375,0.34375 -5.625,0.625 -3.46875,1.5
c 0.1398,0.0214 -1.3048,0.47329 -2,1.28125 2.9617,0.11577 4.76265,-1.09868 7.40625,-0.84375 9.09,0.35353 17.27115,0.0554 29.46875,0.28125
l 7.46875,2.84375 5.15625,1.90625 2.9375,3.8125 2.71875,3.46875 0.78125,7.15625
c -1.1512,1.60788 -0.99975,1.64131 -0.78125,3.34375
L 186.3,70.59375
c -1.1663,6.52803 -2.5328,12.66883 -3.0625,13.65625 -0.3638,2.24086 -1.7627,10.37604 -1.3125,9.34375
l 2.21875,-5.125 3.59375,-13.53125
c 2.0968,-7.82612 3.60195,-14.44117 4.03125,-16.3125 1.9171,-0.41895 0.3403,-3.00206 0.5625,-4.21875
l -0.4375,-3.5 3.90625,1.59375 6.125,7.875
c 2.9405,3.68677 6.7799,8.17818 7.6875,9.5
l 0.53125,3.09375 0.625,10.3125 -0.25,10.90625 0.40625,4.5625 1.3125,-3.75 0.5625,-6.15625 0.3125,-6.15625 -0.5625,-7 0.15625,-7.375 -3.90625,-4.75 -6.4375,-7.8125 -0.25,-1.59375 2.03125,0.0625 4.15625,2.4375 4.34375,4.625
c 3.7594,8.03775 10.3049,18.31939 21.375,17.5
l 1.96875,-0.0625 5,0 0,-34.8125 -5,0 -0.15625,1.21875 0,2.3125 -5.28125,-0.375
c -7.0369,-0.29958 -9.7414,-0.93483 -15.1875,-3.625
l -5.46875,-2.6875 -1.34375,-2.15625 -2,-2.8125
c 1.5853,-3.45163 6.2643,-5.23074 9.4375,-7.625
l 10.90625,-8.59375
c 1.8366,-0.93663 1.6278,1.08349 1.8125,2.34375 0.0758,1.83839 0.27125,3.59109 0.28125,4.8125 0.008,1.22141 1.3478,4.40706 3.625,9.3125 2.79569,4.79128 3.34238,6.82004 3.375,7.875
l 5,0 0,-18.375 -5,0 -3.0625,-8.03125 -1.125,-3.3125
c -1.4326,-2.70266 -3.66115,-2.04322 -5.09375,-0.0625
l -5.34375,4.96875
c -3.0707,2.64684 -8.37065,6.67277 -11.78125,8.96875
l -6.1875,4.1875 -1.375,-0.25
c -2.9783,-1.87396 -5.6007,-2.64044 -7.5,-3.5625
l -1.25,-1.5625 0.0625,-6.5625 0.0625,-6.53125 1.21875,-5.8125 1.25,-5.8125 -0.0312,-2.15625 -5.28125,0
z
M 20.9875,73.09375
c -0.38836,-0.0196 -0.77425,0.004 -1.15625,0.0312 -4.0969,0.2865 -7.15625,1.71875 -7.15625,1.71875
l -5.65625,2.5625 -2.75,1.90625
c -1.0112,0.44131 -4.28125,3.7898 -4.28125,5.40625
l 0,23.625 1.28125,-0.0312 4.90625,5
c 5.4544,5.59199 5.31745,5.2216 3.84375,7.96875
l -1.09375,2 -3.375,1.40625
c -3.285,1.09506 -3.9825,1.48518 -4.8125,0.75
l -0.75,-0.65625 0,65.84375 4.625,-2.21875
c 1.6516,-0.39202 5.15935,0.0713 9.21875,-0.1875
l 8.09375,-0.8125 3.09375,2.9375 2.78125,2.5625 3,6
c 3.006,3.50436 2.91975,5.63983 2.78125,7.75 -0.9024,1.56513 -1.63175,1.35971 -1.71875,2.34375 1.1363,1.22193 1.69385,3.06386 1.09375,4
l 68.5625,0 -1.53125,-1.75
c -0.064,-1.27324 -2.53185,-3.63398 -3.78125,-5.90625
l -2.28125,-4.125 0.40625,-1.15625 -3.09375,-7.3125 12.96875,10.5
c 1.2101,-1.37956 1.914,-3.44808 4.8125,-7.46875
l 6.15625,4 3.0625,-3.65625 -6.03125,-5.09375 2.34375,-2.5625
c 1.328,-1.7863 1.4933,-1.90582 2.6875,-3.90625
l -6.28125,-3.84375
c -2.8903,-1.8588 -6.1076,-4.32466 -7.125,-5.46875
l -2.46875,-1.84375 -5.6875,-5.3125 7.59375,1.78125
c 2.0602,0.0933 3.99205,-0.0866 5.21875,-1.65625 2.6259,2.09401 3.492,1.00714 7.6875,-3.75 2.717,-3.88307 1.57505,-3.46282 -0.96875,-7.625
l -2,-3.28125 -0.78125,-2.4375 0.125,-4.75 2.09375,0.4375
c 0.8357,-0.69189 5.1093,-3.5697 10.1875,-6.6875
l 9.15625,-5.96875 4,-4.3125 4.40625,-5.09375 0.15625,-1.375
c -0.3315,-0.9615 -1.01555,-3.7227 -2.59375,-5.75 -0.789,-1.01367 -3.625,-3.25 -3.625,-3.25 0,0 -3.65765,-0.15834 -3.53125,-0.375 6.0683,-3.91638 12.3547,-7.52927 18.4375,-11.40625 0.3489,-2.55539 -0.83825,-3.15185 -2.84375,-2.6875
l -16.5,9.875 -1.6875,-3.4375 -2.8125,0.40625 0,2.625
c -1.1337,0.60526 -2.58795,-1.5 -3.71875,-1.5
l -3.125,1.84375 -8.1875,4.5 -9.75,5.84375
c -0.3612,0.6342 -0.1718,1.26241 -0.3125,3.59375
l -3.875,1.96875 -4.5,2.9375 -4.65625,1.9375 -4.625,-2.3125
c -1.4707,-0.78522 -3.30185,-3.09844 -6.46875,-6.21875
l -5.75,-5.65625 -3.90625,-1.96875
c -0.3041,-2.37074 -7.0212,-2.97604 -10.875,-4.25 0,0 -4.2194,-3.25815 -7,-2.3125
l -4.375,1.625 -0.96875,-1.28125 -0.0625,-2.25
c -0.4666,-1.23084 -1.18905,-4.69814 -1.59375,-7.71875 -0.4048,-3.02061 -1.21635,-6.35995 -2.03125,-8.625 0,0 -0.34795,-2.44983 -1.90625,-4.125 -1.5582,-1.67516 -4.71875,-5.65625 -4.71875,-5.65625 -2.0855,-2.45867 -5.8125,-4.28125 -5.8125,-4.28125 -2.63191,-1.02098 -5.469,-2.23794 -8.1875,-2.375
z
m -21,51.6875
c 0.06,-5.47884 0.076,-10.9587 0,-16.4375
l 0,16.4375
z" />
</svg>
